<svg xmlns="http://www.w3.org/2000/svg" width="1440" height="1000" viewBox="0 0 1440 1000"><rect width="1440" height="1000" fill="#f6f7f2"/><rect width="1440" height="88" fill="#fcfcf8"/><path d="M0 87H1440" stroke="#dce2dc"/><rect x="86" y="24" width="40" height="40" rx="10" fill="#163e35"/><path d="M86 60h40" stroke="#ed7541" stroke-width="4"/><text x="140" y="51" class="brand">Constru<tspan fill="#ed7541">MOB</tspan></text><text x="140" y="69" class="small">CONSTRUIR COMEÇA COM CONECTAR</text><text x="1160" y="51" class="small">PT-01  LOGIN E CADASTRO</text><text x="100" y="170" class="kicker">PT-01  LOGIN E CADASTRO</text><text x="100" y="225" class="title">Seu projeto tem lugar aqui.</text><text x="100" y="270" class="body">Interface responsiva para conectar clientes e profissionais da construção civil.</text><rect x="100" y="330" width="500" height="280" rx="14" fill="#ffffff" stroke="#dce2dc"/><text x="130" y="380" class="cardtitle">Construção começa com conectar.</text><text x="130" y="425" class="body">Publique demandas, acompanhe cada etapa</text><text x="130" y="453" class="body">e encontre profissionais de confiança.</text><path d="M130 500h360M130 530h280M130 560h330" stroke="#dce2dc" stroke-width="2"/><rect x="760" y="240" width="500" height="54" rx="7" fill="#ffffff" stroke="#dce2dc"/><text x="785" y="273" class="field">E-mail                 voce@exemplo.com</text><rect x="760" y="322" width="500" height="54" rx="7" fill="#ffffff" stroke="#dce2dc"/><text x="785" y="355" class="field">Senha                  ••••••••••</text><rect x="760" y="404" width="500" height="54" rx="7" fill="#163e35"/><text x="1010" y="274" text-anchor="middle" class="button">ENTRAR NA PLATAFORMA</text><text x="100" y="900" class="small">ConstruMOB · Protótipo navegável documentado no GitHub</text><style>.brand{font:800 25px Arial;fill:#1b302b}.small{font:700 10px Arial;letter-spacing:1.4px;fill:#64716b}.kicker{font:800 11px Arial;letter-spacing:2px;fill:#ed7541}.title{font:700 42px Arial;fill:#1b302b}.body{font:400 16px Arial;fill:#64716b}.cardtitle{font:700 24px Arial;fill:#163e35}.field{font:400 14px Arial;fill:#1b302b}.button{font:700 13px Arial;fill:#fff;letter-spacing:.4px}</style></svg>